<?xml version="1.0" standalone="no"?>
<!DOCTYPE svg PUBLIC "-//W3C//DTD SVG 20010904//EN"
 "http://www.w3.org/TR/2001/REC-SVG-20010904/DTD/svg10.dtd">
<svg version="1.0" xmlns="http://www.w3.org/2000/svg"
 width="1014.000000pt" height="390.000000pt" viewBox="0 0 1014.000000 390.000000"
 preserveAspectRatio="xMidYMid meet">

<g transform="translate(0.000000,390.000000) scale(0.100000,-0.100000)"
fill="red" stroke="none">
<path d="M1485 3798 c-80 -69 -349 -407 -549 -688 -217 -305 -372 -578 -398
-701 -10 -50 -9 -60 8 -95 13 -24 48 -60 92 -93 53 -40 72 -60 72 -77 0 -40
-40 -41 -149 -4 -170 57 -305 52 -390 -15 -36 -29 -52 -35 -92 -35 -58 0 -63
-13 -13 -37 28 -14 41 -29 54 -65 48 -127 205 -287 391 -398 l56 -33 -15 -61
c-26 -110 -4 -223 71 -373 103 -204 844 -1105 887 -1078 21 13 -107 216 -282
448 -32 42 -55 77 -49 77 12 0 74 -69 191 -214 90 -111 110 -130 110 -104 0
11 -54 109 -87 158 l-17 25 24 -21 c66 -56 67 -32 2 67 -67 103 -69 107 -45 
87 22 -20 39 -23 47 -9 8 13 -67 112 -158 208 -43 46 -74 83 -70 83 5 0 41
-34 79 -75 66 -70 95 -90 95 -65 0 6 -21 42 -47 82 -45 67 -48 75 -52 149 -4
91 14 162 67 263 64 122 183 226 261 226 13 0 76 -24 140 -54 323 -150 854
-264 1426 -306 201 -14 280 -13 295 5 18 22 -4 28 -285 85 -563 115 -748 172
-851 262 -80 71 -79 143 5 221 60 56 119 87 280 144 452 160 781 319 781 378
0 8 -2 15 -4 15 -2 0 -48 -22 -103 -50 -341 -172 -911 -290 -1398 -290 -197 0
-270 10 -357 47 -163 70 -278 164 -330 271 -29 58 -33 76 -32 142 1 103 28
167 125 296 98 131 103 150 24 97 -39 -26 -40 -26 -19 -2 66 76 138 219 110
219 -8 0 -38 -26 -67 -57 -62 -68 -61 -65 48 95 46 67 83 129 83 137 0 25 -22
17 -63 -22 l-39 -38 31 55 c59 102 101 189 101 210 0 40 -30 18 -99 -72 -97
-128 -130 -165 -83 -93 131 200 275 487 276 549 1 66 -24 51 -73 -44 -48 -93
-223 -364 -243 -376 -7 -5 -4 5 7 21 49 75 241 407 268 463 23 50 27 65 17 77
-17 21 -25 19 -65 -17z"/>
<path d="M3751 3226 c-9 -11 -11 -101 -9 -338 l3 -323 28 -57 c35 -72 110
-140 185 -168 77 -29 195 -25 267 10 66 32 131 98 163 168 l27 57 3 318 c2
233 0 322 -9 333 -16 20 -47 17 -59 -5 -6 -12 -10 -132 -10 -321 0 -328 -1
-336 -60 -410 -45 -57 -119 -90 -199 -90 -81 0 -134 23 -189 80 -68 69 -72 93
-72 427 0 184 -4 302 -10 314 -12 22 -43 25 -59 5z"/>
<path d="M4676 3225 c-14 -15 -16 -61 -16 -440 0 -372 2 -425 16 -439 21 -22
51 -20 64 3 6 12 10 94 10 196 l0 177 173 -4 c150 -3 176 -6 206 -23 58 -34
71 -61 80 -165 10 -129 47 -200 102 -200 24 0 45 29 33 44 -43 59 -47 71 -55
156 -11 120 -40 180 -105 218 -18 11 -18 13 -2 22 81 49 128 131 128 223 0 97
-46 172 -135 220 -37 20 -57 22 -261 25 -194 3 -223 1 -238 -13z m469 -88 c96
-53 112 -193 32 -284 -50 -57 -76 -63 -262 -63 l-165 0 0 185 0 185 178 0
c165 0 180 -2 217 -23z"/>
<path d="M5361 2226 c-8 -9 -10 -143 -9 -477 l3 -464 23 -3 c53 -8 52 -15 52
474 0 398 -2 454 -16 468 -19 20 -38 20 -53 2z"/>
<path d="M5661 2226 c-8 -9 -10 -143 -9 -477 l3 -464 27 -3 c19 -2 30 3 38 17
7 15 10 159 8 471 -3 388 -5 452 -18 460 -21 13 -36 12 -49 -4z"/>
<path d="M4028 2185 c-139 -35 -236 -113 -299 -241 -39 -77 -42 -91 -47 -181
-3 -72 0 -116 12 -163 44 -172 184 -298 367 -331 90 -16 189 0 287 46 62 29
73 38 70 56 -6 43 -31 45 -110 8 -68 -31 -80 -34 -173 -34 -93 0 -105 2 -167
33 -143 70 -218 214 -205 390 11 139 87 256 205 314 62 31 74 33 167 33 92 0
105 -3 169 -33 78 -37 102 -40 111 -13 9 29 -3 46 -49 69 -111 56 -236 73
-338 47z"/>
<path d="M7757 2132 c-36 -39 -10 -92 43 -92 31 0 50 23 50 59 0 46 -62 68
-93 33z"/>
<path d="M7382 2108 c-7 -7 -12 -43 -12 -90 l0 -78 -53 0 c-55 0 -77 -12 -77
-42 0 -24 30 -38 84 -38 l46 0 0 -240 c0 -258 5 -292 51 -324 29 -20 118 -22
143 -3 10 7 17 22 14 33 -3 15 -13 19 -53 21 -34 1 -53 7 -62 19 -10 13 -13
78 -13 256 l0 238 61 0 c72 0 99 12 99 44 0 30 -16 36 -96 36 l-64 0 0 78 c0
79 -9 102 -40 102 -9 0 -21 -5 -28 -12z"/>
<path d="M4800 1949 c-183 -28 -308 -216 -270 -409 22 -114 89 -202 188 -248
47 -22 71 -26 137 -26 134 1 227 60 287 182 30 61 33 74 33 162 0 81 -4 103
-27 151 -63 137 -201 211 -348 188z m180 -103 c50 -33 96 -96 111 -150 16 -59
6 -173 -19 -221 -45 -89 -122 -135 -222 -135 -100 0 -171 43 -216 131 -71 140
-21 318 108 383 47 24 62 27 125 23 57 -3 81 -10 113 -31z"/>
<path d="M6137 1949 c-58 -9 -124 -46 -166 -94 -117 -134 -119 -364 -3 -489
95 -102 261 -132 382 -71 102 52 153 123 100 140 -15 5 -32 -3 -62 -30 -22
-20 -55 -43 -74 -51 -45 -19 -155 -18 -202 2 -78 32 -138 115 -149 205 l-6 49
255 0 c292 0 285 -2 273 77 -26 177 -175 289 -348 262z m130 -84 c78 -33 119
-80 137 -157 l6 -28 -224 0 -225 0 15 42 c43 124 179 190 291 143z"/>
<path d="M6877 1950 c-110 -19 -207 -100 -247 -208 -18 -47 -21 -73 -18 -152
3 -87 7 -101 39 -160 41 -75 107 -131 178 -152 104 -30 249 -6 311 52 35 32
38 55 10 70 -15 8 -28 4 -65 -22 -43 -30 -54 -33 -133 -36 -83 -3 -89 -2 -142
30 -122 74 -162 238 -91 376 70 137 261 175 394 80 13 -10 21 -10 35 -2 65 41
-34 114 -173 127 -27 3 -71 1 -98 -3z"/>
<path d="M8267 1949 c-67 -10 -129 -43 -175 -94 -54 -57 -79 -109 -91 -187
-27 -163 48 -311 189 -377 73 -34 191 -36 262 -4 66 30 129 92 163 160 27 52
29 68 30 158 0 83 -4 108 -23 149 -66 145 -201 218 -355 195z m147 -83 c51
-21 107 -76 132 -131 33 -70 33 -180 0 -250 -27 -59 -88 -118 -141 -135 -20
-7 -67 -10 -104 -8 -58 3 -74 8 -117 39 -119 86 -147 269 -60 396 61 89 193
129 290 89z"/>
<path d="M9073 1949 c-56 -10 -94 -32 -143 -78 l-40 -38 0 38 c0 35 -20 69
-40 69 -5 0 -16 -7 -24 -16 -14 -13 -16 -56 -16 -314 0 -164 3 -305 6 -314 8
-21 60 -21 68 0 3 9 6 108 6 220 0 223 4 246 56 298 67 67 189 88 254 44 74
-51 75 -54 78 -306 1 -125 5 -237 7 -249 6 -26 42 -32 63 -11 19 19 16 439 -4
507 -34 117 -141 176 -271 150z"/>
<path d="M9723 1950 c-102 -21 -163 -77 -171 -161 -10 -105 44 -159 216 -214
134 -43 172 -71 172 -128 0 -75 -76 -124 -180 -114 -67 6 -107 24 -155 73 -41
41 -78 44 -83 5 -7 -50 94 -123 198 -142 162 -29 290 50 290 180 0 103 -40
141 -202 192 -109 34 -157 62 -176 103 -39 79 59 158 174 140 26 -4 67 -21 96
-40 55 -37 83 -43 92 -18 16 42 -70 105 -168 123 -33 6 -60 11 -60 10 -1 -1
-20 -5 -43 -9z"/>
<path d="M7765 1938 c-3 -7 -4 -157 -3 -333 l3 -320 30 0 30 0 0 330 0 330
-28 3 c-16 2 -29 -2 -32 -10z"/>
<path d="M4830 771 l0 -201 30 0 30 0 0 94 c0 87 2 96 22 110 27 19 59 21 76
4 8 -8 12 -47 12 -110 l0 -98 30 0 30 0 0 108 c0 120 -10 146 -59 157 -20 4
-42 0 -70 -14 l-40 -21 -3 83 c-3 81 -3 82 -30 85 l-28 3 0 -200z"/>
<path d="M6380 771 l0 -201 30 0 30 0 0 98 c0 96 1 99 25 110 70 32 85 12 85
-110 l0 -98 30 0 30 0 0 108 c0 120 -10 146 -59 157 -20 4 -42 0 -70 -14 l-40
-21 -3 83 c-3 81 -3 82 -30 85 l-28 3 0 -200z"/>
<path d="M6697 944 c-13 -14 -7 -43 12 -53 24 -13 55 8 50 35 -4 19 -48 32
-62 18z"/>
<path d="M3680 793 c0 -120 3 -142 19 -167 27 -41 57 -55 116 -55 61 -1 93 14
122 58 21 31 23 45 23 167 l0 134 -24 0 -24 0 -4 -141 c-3 -134 -4 -142 -27
-160 -41 -33 -109 -19 -130 28 -6 13 -11 79 -11 148 l0 125 -30 0 -30 0 0
-137z"/>
<path d="M4060 750 l0 -180 30 0 30 0 0 70 0 70 33 0 c30 0 36 -5 71 -70 35
-66 39 -70 72 -70 40 0 40 -2 -27 102 l-38 60 34 34 c25 24 35 44 35 65 0 72
-44 99 -160 99 l-80 0 0 -180z m160 120 c26 -26 25 -60 -1 -94 -17 -22 -28
-27 -58 -24 l-36 3 -3 68 -3 67 41 0 c27 0 47 -7 60 -20z"/>
<path d="M4476 914 c-3 -9 -6 -18 -6 -20 0 -2 27 -4 60 -4 l60 0 0 -160 0
-160 30 0 30 0 0 160 0 159 57 3 c46 2 59 7 61 21 3 16 -9 17 -141 17 -123 0
-146 -2 -151 -16z"/>
<path d="M5560 750 l0 -180 30 0 30 0 0 85 0 84 62 3 c50 2 63 6 66 21 3 15
-5 17 -62 17 l-66 0 0 55 0 55 74 0 c65 0 74 2 79 20 5 19 0 20 -104 20 l-109
0 0 -180z"/>
<path d="M5214 826 c-93 -42 -112 -187 -31 -236 36 -23 112 -27 152 -8 44 20
29 34 -36 33 -54 0 -63 3 -85 28 -13 15 -24 32 -24 38 0 5 41 9 91 9 l92 0 -6
46 c-9 81 -81 123 -153 90z m86 -55 c22 -43 14 -51 -51 -51 -58 0 -60 1 -53
23 11 36 25 47 60 47 23 0 37 -6 44 -19z"/>
<path d="M5878 828 c-31 -8 -38 -15 -38 -35 0 -20 3 -24 18 -17 9 4 36 9 59
12 39 4 44 2 53 -23 5 -14 10 -28 10 -29 0 -2 -23 -6 -51 -10 -87 -12 -133
-77 -93 -134 20 -29 81 -30 117 -2 l26 20 6 -20 c6 -20 37 -26 69 -14 20 8 21
34 2 34 -10 0 -15 22 -18 90 -3 74 -8 94 -25 111 -24 24 -83 32 -135 17z m100
-160 c5 -44 -60 -77 -88 -43 -16 19 -5 62 18 68 41 12 67 3 70 -25z"/>
<path d="M6173 826 c-35 -16 -53 -43 -53 -79 0 -30 16 -44 77 -66 40 -14 48
-21 48 -41 0 -23 -4 -25 -45 -24 -25 0 -52 3 -61 8 -12 5 -18 1 -22 -16 -8
-30 7 -38 76 -38 51 0 62 4 88 29 50 50 32 101 -43 121 -50 14 -70 32 -62 54
6 15 15 18 60 14 46 -4 53 -2 58 16 3 11 3 22 1 24 -12 12 -94 11 -122 -2z"/>
<path d="M6902 821 c-32 -15 -47 -31 -62 -63 -24 -53 -24 -67 -4 -118 19 -48
55 -70 114 -70 85 0 140 56 140 143 0 40 -5 53 -32 82 -43 45 -95 54 -156 26z
m107 -57 c64 -81 -23 -200 -96 -132 -28 26 -32 101 -7 136 22 32 76 30 103 -4z"/>
<path d="M7280 829 c-13 -6 -33 -17 -43 -26 -17 -16 -18 -15 -24 5 -3 15 -13
22 -29 22 l-24 0 0 -130 0 -130 30 0 30 0 0 94 c0 87 2 96 22 110 25 18 56 20
78 6 11 -7 16 -34 18 -110 l4 -100 30 0 30 0 -4 111 c-3 107 -4 112 -31 135
-30 26 -48 28 -87 13z"/>
<path d="M6690 700 l0 -130 35 0 35 0 0 130 0 130 -35 0 -35 0 0 -130z"/>
</g>
</svg>
